<svg width="1024" height="1024" viewBox="0 0 1024 1024" fill="none" xmlns="http://www.w3.org/2000/svg">
<ellipse cx="511.716" cy="512" rx="419.716" ry="421" fill="#7150F1"/>
<ellipse cx="511.716" cy="512" rx="419.716" ry="421" fill="url(#paint0_linear)"/>
<path opacity="0.6" d="M391.087 537.977H292.009C285.403 537.977 281 533.552 281 526.913C281 523.594 282.101 521.382 284.303 519.169L306.32 497.041C267.79 450.573 274.395 380.871 321.732 342.148C369.07 303.424 438.424 310.063 476.955 357.637C515.485 405.211 508.88 474.913 461.543 513.637C440.626 529.126 416.407 537.977 391.087 537.977Z" fill="white"/>
<path d="M571.006 706.341H726.701C737.08 706.341 744 699.386 744 688.955C744 683.739 742.27 680.262 738.81 676.785L704.211 642.013C764.759 568.991 754.38 459.46 679.992 398.609C605.605 337.758 496.619 348.189 436.071 422.949C375.523 497.709 385.903 607.241 460.29 668.092C493.159 692.432 531.218 706.341 571.006 706.341Z" fill="white"/>
<circle cx="491.453" cy="516.932" r="21.0454" fill="#F97777"/>
<ellipse cx="659.819" cy="516.932" rx="21.0455" ry="21.0454" fill="#F97777"/>
<path d="M607.205 601.636C607.205 607.159 602.728 611.636 597.205 611.636L554.069 611.636C548.546 611.636 544.069 607.159 544.069 601.636L544.069 580.068L607.205 580.068L607.205 601.636Z" fill="#F97777"/>
<defs>
<linearGradient id="paint0_linear" x1="511.716" y1="91" x2="511.716" y2="933" gradientUnits="userSpaceOnUse">
<stop stop-color="#F97777"/>
<stop offset="1" stop-color="#F9778E"/>
</linearGradient>
</defs>
</svg>
