<svg width="1024" height="1024" viewBox="0 0 1024 1024" fill="none" xmlns="http://www.w3.org/2000/svg">
<ellipse cx="511.716" cy="512" rx="419.716" ry="421" fill="#7150F1"/>
<ellipse cx="511.716" cy="512" rx="419.716" ry="421" fill="url(#paint0_linear)"/>
<path fill-rule="evenodd" clip-rule="evenodd" d="M693.342 302H408.493C379.546 302 356.142 326.291 356.142 355.63V447.432V681.511C356.142 702.963 340.129 720.314 319.497 721.891H688.722C721.057 721.891 746 696.338 746 664.791V355.63C745.692 326.291 722.288 302 693.342 302Z" fill="white"/>
<path opacity="0.5" fill-rule="evenodd" clip-rule="evenodd" d="M650.537 484.975H448.525C438.363 484.975 429.433 475.826 429.433 465.416V387.495C429.433 377.084 438.363 367.936 448.525 367.936H650.845C661.007 367.936 669.937 377.084 669.937 387.495V465.416C669.629 476.142 661.007 484.975 650.537 484.975ZM650.537 561.627H448.525C438.363 561.627 429.433 552.478 429.433 542.067C429.433 531.657 438.363 522.508 448.525 522.508H650.845C661.007 522.508 669.937 531.657 669.937 542.067C669.629 552.793 661.007 561.627 650.537 561.627ZM448.525 639.873H650.537C661.007 639.873 669.629 630.724 669.937 620.314C669.937 609.903 661.007 600.755 650.845 600.755H448.525C438.363 600.755 429.433 609.903 429.433 620.314C429.433 630.724 438.363 639.873 448.525 639.873Z" fill="url(#paint1_linear)"/>
<path opacity="0.75" d="M350.598 532.921H340.744H316.724C300.403 532.921 287.162 546.486 287.162 563.206V576.456V594.122V694.442C287.162 709.9 302.559 722.519 321.651 722.519C340.744 722.519 356.141 710.215 356.141 694.442V532.921H350.598Z" fill="white"/>
<defs>
<linearGradient id="paint0_linear" x1="41.5" y1="55.5" x2="1017.5" y2="1132.5" gradientUnits="userSpaceOnUse">
<stop stop-color="#7150F1"/>
<stop offset="1" stop-color="#B343E8"/>
</linearGradient>
<linearGradient id="paint1_linear" x1="320.948" y1="256.978" x2="741.731" y2="697.063" gradientUnits="userSpaceOnUse">
<stop stop-color="#3E3BBA"/>
<stop offset="1" stop-color="#B343E8"/>
</linearGradient>
</defs>
</svg>
