<svg width="1024" height="1024" viewBox="0 0 1024 1024" fill="none" xmlns="http://www.w3.org/2000/svg">
<path d="M64 288.25C64 164.4 164.4 64 288.25 64H736.75C860.6 64 961 164.4 961 288.25V736.75C961 860.6 860.6 961 736.75 961H288.25C164.4 961 64 860.6 64 736.75V288.25Z" fill="#F97777"/>
<path opacity="0.5" d="M513 395C642.234 395 747 368.809 747 336.5C747 304.191 642.234 278 513 278C383.765 278 279 304.191 279 336.5C279 368.809 383.765 395 513 395Z" fill="white"/>
<path d="M513 433.99C383.744 433.99 279 407.811 279 375.49V512C279 544.321 383.774 570.5 513 570.5C642.226 570.5 747 544.321 747 512V375.49C747 407.811 642.256 433.99 513 433.99ZM347.24 512C331.094 512 317.99 498.896 317.99 482.75C317.99 466.604 331.094 453.5 347.24 453.5C363.386 453.5 376.49 466.604 376.49 482.75C376.49 498.896 363.386 512 347.24 512Z" fill="white"/>
<path d="M513 609.49C383.744 609.49 279 583.311 279 550.99V687.5C279 719.821 383.774 746 513 746C642.226 746 747 719.821 747 687.5V550.99C747 583.311 642.256 609.49 513 609.49ZM347.24 687.5C331.094 687.5 317.99 674.396 317.99 658.25C317.99 642.104 331.094 629 347.24 629C363.386 629 376.49 642.104 376.49 658.25C376.49 674.396 363.386 687.5 347.24 687.5Z" fill="white"/>
</svg>
