<svg width="1024" height="1024" viewBox="0 0 1024 1024" fill="none" xmlns="http://www.w3.org/2000/svg">
<path d="M64 288.25C64 164.4 164.4 64 288.25 64H736.75C860.6 64 961 164.4 961 288.25V736.75C961 860.6 860.6 961 736.75 961H288.25C164.4 961 64 860.6 64 736.75V288.25Z" fill="#FB7A32"/>
<path opacity="0.5" d="M712.179 314H312.88C291.442 314 274 331.482 274 352.932V420.803C274 460.631 306.38 493 346.155 493C367.504 493 386.497 483.513 399.705 468.746C413.749 483.603 433.487 493 455.462 493C478.181 493 498.427 482.916 512.5 467.194C526.603 482.916 546.818 493 569.538 493C591.543 493 611.281 483.603 625.295 468.746C638.503 483.513 657.526 493 678.845 493C718.649 493 751 460.601 751 420.803V352.932C751.059 331.482 733.617 314 712.179 314ZM378.565 420.803C378.565 438.674 364.015 453.232 346.155 453.232C328.295 453.232 313.745 438.674 313.745 420.803L312.88 353.798H378.565V416.06V420.803ZM455.491 453.232C435.008 453.232 418.34 436.555 418.34 416.06V353.798H492.672V416.06C492.642 436.555 475.975 453.232 455.491 453.232ZM569.568 453.232C549.084 453.232 532.417 436.555 532.417 416.06V353.798H606.749V416.06C606.749 436.555 590.052 453.232 569.568 453.232ZM711.314 420.803C711.314 438.674 696.764 453.232 678.904 453.232C661.044 453.232 646.494 438.674 646.494 420.803V416.03V353.589L711.314 352.932V420.803Z" fill="white"/>
<path d="M711.205 527.64V572.081H313.735V527.64C299.039 523.056 285.506 515.734 274 506V616.73C274 635.781 289.709 651.468 308.787 651.468H460.99C458.665 661.409 452.465 677.543 435.921 694.063C433.089 696.891 432.225 701.177 433.775 704.868C435.295 708.589 438.932 711 442.956 711H582.074C586.098 711 589.735 708.589 591.255 704.868C592.775 701.147 591.94 696.891 589.109 694.063C572.594 677.573 566.245 661.439 563.771 651.468H716.213C735.291 651.468 751 635.781 751 616.73V506C739.434 515.734 725.901 523.056 711.205 527.64Z" fill="white"/>
</svg>
