<svg width="1024" height="1024" viewBox="0 0 1024 1024" fill="none" xmlns="http://www.w3.org/2000/svg">
<ellipse cx="511.716" cy="512" rx="419.716" ry="421" fill="#3D4166"/>
<path d="M289.027 436.448L504.677 525.656C507.128 526.846 509.579 526.846 512.028 526.846C514.479 526.846 516.93 526.251 519.38 525.656L735.029 436.448C741.769 433.474 746.057 426.932 746.057 419.795C746.057 412.657 741.769 406.116 735.029 403.142L519.38 313.338C514.478 311.554 509.578 311.554 504.676 313.338L289.027 403.143C282.288 406.116 278 412.658 278 419.795C278 426.931 282.288 433.474 289.027 436.448Z" fill="white"/>
<path opacity="0.5" d="M719.652 582.146L511.545 672.592L303.44 582.146C294.259 577.809 283.241 582.765 279.568 592.057C275.284 601.35 280.18 612.501 289.361 616.217L504.812 709.761C507.261 711 509.709 711 512.157 711C514.605 711 517.054 710.381 519.501 709.761L734.952 616.217C744.133 611.881 748.418 601.349 744.745 592.056C739.85 582.766 728.833 578.429 719.652 582.146Z" fill="white"/>
<path opacity="0.5" d="M288.862 530.121L504.549 617.753C507 618.922 509.451 618.922 511.901 618.922C514.352 618.922 516.804 618.338 519.254 617.753L734.94 530.121C744.131 526.615 748.42 516.1 744.744 507.336C740.455 498.572 730.037 494.483 720.846 497.989L511.9 582.116L303.569 497.405C294.377 493.899 283.348 497.989 279.671 506.752C275.382 515.516 279.671 526.032 288.862 530.121Z" fill="white"/>
</svg>
