<svg width="1024" height="1024" viewBox="0 0 1024 1024" fill="none" xmlns="http://www.w3.org/2000/svg">
<path d="M64 288.25C64 164.4 164.4 64 288.25 64H736.75C860.6 64 961 164.4 961 288.25V736.75C961 860.6 860.6 961 736.75 961H288.25C164.4 961 64 860.6 64 736.75V288.25Z" fill="#405261"/>
<path opacity="0.5" d="M512 786C499.31 786 489 775.797 489 763.239V262.761C489 250.169 499.31 240 512 240C524.69 240 535 250.203 535 262.761V763.273C535 775.831 524.69 786 512 786Z" fill="white"/>
<path opacity="0.5" d="M762.273 536H261.727C249.169 536 239 525.69 239 513C239 500.31 249.203 490 261.761 490H762.273C774.831 490 785 500.31 785 513C785 525.69 774.831 536 762.273 536Z" fill="white"/>
<path d="M699.688 444.751H620.074C598.131 444.751 580.25 426.903 580.25 404.927V325.313C580.25 303.371 598.097 285.489 620.074 285.489H699.688C721.63 285.489 739.511 303.337 739.511 325.313V404.927C739.511 426.903 721.664 444.751 699.688 444.751Z" fill="white"/>
<path d="M699.688 740.511H620.074C598.131 740.511 580.25 722.63 580.25 700.688V621.074C580.25 599.097 598.131 581.25 620.074 581.25H699.688C721.63 581.25 739.511 599.097 739.511 621.074V700.688C739.511 722.63 721.664 740.511 699.688 740.511Z" fill="white"/>
<path d="M403.926 740.511H324.313C302.37 740.511 284.489 722.664 284.489 700.688V621.074C284.489 599.097 302.336 581.25 324.313 581.25H403.926C425.869 581.25 443.75 599.097 443.75 621.074V700.688C443.75 722.63 425.869 740.511 403.926 740.511Z" fill="white"/>
<path d="M403.926 444.751H324.313C302.37 444.751 284.489 426.903 284.489 404.927V325.313C284.489 303.371 302.336 285.489 324.313 285.489H403.926C425.869 285.489 443.75 303.371 443.75 325.313V404.927C443.75 426.903 425.869 444.751 403.926 444.751Z" fill="white"/>
</svg>
