<svg width="1024" height="1024" viewBox="0 0 1024 1024" fill="none" xmlns="http://www.w3.org/2000/svg">
<path d="M64 288.25C64 164.4 164.4 64 288.25 64H736.75C860.6 64 961 164.4 961 288.25V736.75C961 860.6 860.6 961 736.75 961H288.25C164.4 961 64 860.6 64 736.75V288.25Z" fill="#00B8AD"/>
<path opacity="0.5" d="M272.346 334.654C237.386 334.654 209 306.268 209 271.346C209 236.424 237.386 208 272.346 208C307.268 208 335.692 236.424 335.692 271.346C335.654 306.268 307.268 334.654 272.346 334.654Z" fill="white"/>
<path opacity="0.5" d="M272.346 816.001C237.386 816.001 209 787.577 209 752.655C209 717.733 237.386 689.309 272.346 689.309C307.268 689.309 335.692 717.733 335.692 752.655C335.654 787.577 307.268 816.001 272.346 816.001Z" fill="white"/>
<path opacity="0.5" d="M753.654 334.654C718.732 334.654 690.308 306.23 690.308 271.308C690.346 236.424 718.732 208 753.654 208C788.576 208 817 236.424 817 271.346C817 306.268 788.614 334.654 753.654 334.654Z" fill="white"/>
<path opacity="0.5" d="M753.654 816.001C718.732 816.001 690.308 787.577 690.308 752.655C690.308 717.733 718.694 689.309 753.654 689.309C788.614 689.309 817 717.733 817 752.655C817 787.577 788.614 816.001 753.654 816.001Z" fill="white"/>
<path d="M513 740C387.258 740 285 637.704 285 512C285 386.296 387.258 284 513 284C638.742 284 741 386.296 741 512C741 637.704 638.742 740 513 740ZM513 334.654C415.226 334.654 335.654 414.188 335.654 512C335.654 609.812 415.226 689.346 513 689.346C610.774 689.346 690.346 609.812 690.346 512C690.346 414.188 610.774 334.654 513 334.654Z" fill="white"/>
<path d="M513 740C506.312 740 499.586 737.34 494.608 732.096C379.468 610.724 379.468 413.238 494.608 291.867C504.222 281.721 520.296 281.303 530.442 290.917C540.588 300.569 541.006 316.567 531.392 326.751C434.492 428.894 434.492 595.068 531.392 697.212C541.006 707.358 540.588 723.394 530.442 733.046C525.54 737.682 519.27 740 513 740Z" fill="white"/>
<path d="M513 740C506.73 740 500.46 737.682 495.558 733.046C485.412 723.394 484.994 707.396 494.608 697.212C591.508 595.068 591.508 428.894 494.608 326.751C484.994 316.605 485.412 300.569 495.558 290.917C505.742 281.303 521.778 281.721 531.392 291.867C646.532 413.238 646.532 610.724 531.392 732.096C526.414 737.34 519.688 740 513 740Z" fill="white"/>
<path d="M708.054 482.056H317.946C303.962 482.056 292.6 470.694 292.6 456.71C292.6 442.726 303.924 431.364 317.946 431.364H708.054C722.038 431.364 733.4 442.726 733.4 456.71C733.4 470.694 722.038 482.056 708.054 482.056Z" fill="white"/>
<path d="M708.054 592.598H317.946C303.962 592.598 292.6 581.236 292.6 567.252C292.6 553.268 303.924 541.906 317.946 541.906H708.054C722.038 541.906 733.4 553.268 733.4 567.252C733.4 581.274 722.038 592.598 708.054 592.598Z" fill="white"/>
</svg>
