<svg width="1024" height="1024" viewBox="0 0 1024 1024" fill="none" xmlns="http://www.w3.org/2000/svg">
<ellipse cx="511.717" cy="512" rx="419.716" ry="421" fill="url(#paint0_linear)"/>
<path d="M777.538 453.088C777.538 466.823 777.538 480.333 777.538 493.618C777.538 510.731 777.538 528.069 777.538 545.182C777.538 548.334 777.767 550.586 780.97 552.837C783.029 554.188 784.63 557.116 785.317 559.818C788.978 574.003 792.41 588.189 795.613 602.374C797.672 611.156 792.638 617.911 783.486 617.911C771.589 618.136 759.463 618.136 747.565 617.911C738.642 617.686 733.609 611.381 735.668 602.825C738.871 587.964 742.532 573.328 746.193 558.692C746.65 556.89 747.565 554.639 748.938 553.963C753.972 551.261 753.743 546.983 753.743 542.48C753.743 515.234 753.743 487.764 753.743 459.843C751.226 460.518 749.167 460.969 746.879 461.419C672.291 480.784 597.474 499.923 522.887 519.513C511.218 522.665 499.778 522.44 488.109 519.513C391.099 494.069 294.09 468.85 197.308 443.406C196.851 443.181 196.164 443.181 195.707 442.955C187.928 440.929 184.038 436.876 183.809 431.247C183.581 425.617 187.699 421.564 195.478 419.538C244.441 406.703 293.174 393.869 342.137 381.259C390.184 368.65 438.46 356.266 486.508 343.431C499.092 340.054 511.447 340.054 524.259 343.431C620.583 368.65 717.135 393.869 813.688 419.088C815.747 419.538 817.806 420.213 819.636 421.114C824.441 423.366 826.958 427.194 826.5 432.372C826.271 437.777 823.068 440.929 818.035 442.28C807.281 445.207 796.757 447.909 786.003 450.836C783.258 451.512 780.512 452.187 777.538 453.088Z" fill="#9EEBE6"/>
<path d="M313.086 514.802C342.143 522.457 370.971 529.888 399.571 537.544C425.425 544.299 451.279 551.279 477.133 558.034C496.352 563.213 515.342 562.988 534.561 558.034C587.185 544.074 640.037 530.338 692.66 516.378C694.49 515.928 696.321 515.477 698.837 515.027C698.837 517.504 698.837 519.305 698.837 521.332C698.837 558.71 698.38 596.087 699.066 633.691C699.295 646.975 689.228 654.181 676.644 650.803C634.545 639.545 594.964 645.624 557.67 667.691C543.255 676.247 531.358 687.281 520.833 700.115C510.995 712.274 501.843 712.725 492.005 700.791C466.837 670.393 434.577 652.38 395.224 646.75C375.776 644.048 356.099 645.174 336.88 650.128C334.592 650.803 332.076 651.479 329.559 651.704C320.636 653.055 312.399 646.525 312.399 637.969C312.17 597.664 312.399 557.584 312.399 517.279C312.399 516.603 312.628 515.928 313.086 514.802Z" fill="#9EEBE6"/>
<defs>
<linearGradient id="paint0_linear" x1="511.717" y1="91" x2="932.715" y2="510.715" gradientUnits="userSpaceOnUse">
<stop stop-color="#06C6BA"/>
<stop offset="1" stop-color="#02A8B3"/>
</linearGradient>
</defs>
</svg>
