<svg width="1024" height="1024" viewBox="0 0 1024 1024" fill="none" xmlns="http://www.w3.org/2000/svg">
<path d="M64 288.25C64 164.4 164.4 64 288.25 64H736.75C860.6 64 961 164.4 961 288.25V736.75C961 860.6 860.6 961 736.75 961H288.25C164.4 961 64 860.6 64 736.75V288.25Z" fill="#FF7058"/>
<path d="M768.092 444.937C768.092 457.784 768.092 470.42 768.092 482.846C768.092 498.853 768.092 515.07 768.092 531.076C768.092 534.025 768.306 536.131 771.307 538.237C773.235 539.501 774.735 542.239 775.378 544.766C778.807 558.034 782.021 571.303 785.021 584.571C786.95 592.785 782.235 599.103 773.664 599.103C762.521 599.314 751.163 599.314 740.02 599.103C731.663 598.893 726.948 592.996 728.877 584.992C731.877 571.092 735.306 557.403 738.734 543.713C739.163 542.028 740.02 539.922 741.306 539.29C746.02 536.763 745.806 532.761 745.806 528.549C745.806 503.065 745.806 477.371 745.806 451.255C743.449 451.887 741.52 452.308 739.377 452.729C669.519 470.842 599.446 488.744 529.587 507.067C518.658 510.015 507.944 509.805 497.015 507.067C406.156 483.268 315.296 459.679 224.652 435.88C224.223 435.67 223.58 435.67 223.152 435.459C215.866 433.564 212.223 429.773 212.008 424.507C211.794 419.242 215.651 415.451 222.937 413.556C268.795 401.551 314.439 389.546 360.297 377.752C405.298 365.958 450.514 354.374 495.515 342.369C507.301 339.21 518.872 339.21 530.873 342.369C621.089 365.958 711.519 389.546 801.95 413.134C803.879 413.556 805.807 414.187 807.522 415.03C812.022 417.136 814.379 420.716 813.95 425.56C813.736 430.615 810.736 433.564 806.022 434.827C795.95 437.565 786.093 440.093 776.021 442.83C773.449 443.462 770.878 444.094 768.092 444.937Z" fill="white"/>
<path opacity="0.5" d="M332.337 502.941C359.593 510.106 386.635 517.06 413.463 524.225C437.715 530.547 461.967 537.079 486.219 543.401C504.247 548.248 522.06 548.037 540.088 543.401C589.45 530.336 639.027 517.482 688.39 504.417C690.107 503.995 691.824 503.574 694.185 503.152C694.185 505.47 694.185 507.156 694.185 509.053C694.185 544.033 693.755 579.014 694.399 614.206C694.614 626.639 685.171 633.382 673.366 630.221C633.877 619.685 596.747 625.374 561.765 646.026C548.244 654.033 537.083 664.359 527.211 676.371C517.982 687.75 509.397 688.171 500.169 677.003C476.561 648.554 446.299 631.696 409.385 626.428C391.142 623.899 372.685 624.953 354.657 629.589C352.511 630.221 350.15 630.853 347.789 631.064C339.419 632.328 331.693 626.217 331.693 618.21C331.478 580.489 331.693 542.98 331.693 505.259C331.693 504.627 331.907 503.995 332.337 502.941Z" fill="white"/>
</svg>
