<svg width="1024" height="1024" viewBox="0 0 1024 1024" fill="none" xmlns="http://www.w3.org/2000/svg">
<ellipse cx="511.716" cy="512" rx="419.716" ry="421" fill="#00B8AD"/>
<path opacity="0.55" fill-rule="evenodd" clip-rule="evenodd" d="M444.953 394.607C444.953 364.086 422.583 339.05 393.62 334.996C396.681 334.996 399.742 334.996 402.568 335.235C417.638 335.235 432.709 336.427 447.543 338.811C447.58 338.811 447.611 338.817 447.637 338.827C469.971 342.407 491.367 348.839 512.293 357.649C545.73 371.955 575.871 392.462 601.774 418.691C627.674 444.92 647.927 475.441 662.055 509.3C670.968 530.203 677.078 551.816 680.615 574.138C680.711 574.224 680.805 574.31 680.901 574.399C683.255 589.42 684.433 604.68 684.433 620.18C684.433 623.995 684.433 627.81 684.196 631.624C681.608 600.626 655.939 576.545 624.858 576.545H559.632C557.532 568.281 554.743 560.488 551.259 552.696H551.146C543.139 534.575 531.837 518.122 517.709 503.816C503.344 489.271 486.626 477.825 468.73 469.718V469.477C460.961 465.901 453.193 463.041 444.953 460.895V394.607ZM559.632 552.699V552.696H624.849C625.152 552.696 625.455 552.699 625.758 552.703C625.536 552.701 625.314 552.699 625.092 552.699H559.632Z" fill="white"/>
<path d="M684.156 631.636C681.568 600.876 655.899 576.555 624.817 576.555H559.592H464.93C453.863 576.555 445.15 567.494 445.15 556.525V461.147V394.859C445.15 364.338 422.78 339.301 393.817 335.248C390.991 334.771 388.165 334.532 385.575 334.532C379.688 334.532 374.037 335.486 368.621 336.917C343.896 344.309 326 367.438 326 394.859V474.738V636.882C326 670.264 352.609 697.208 385.575 697.208H546.639H624.817C652.839 697.208 676.621 677.418 682.743 650.949C683.686 646.42 684.393 641.888 684.393 637.12C684.393 635.211 684.156 633.305 684.156 631.636Z" fill="white"/>
<path d="M678.427 386.145H636.855V344.574C636.855 334.36 628.277 326 618.06 326C607.843 326 599.264 334.36 599.264 344.574V386.145H557.693C547.479 386.145 539.119 394.723 539.119 404.941C539.119 415.158 547.479 423.736 557.693 423.736H599.264V465.308C599.264 475.521 607.843 483.881 618.06 483.881C628.277 483.881 636.855 475.521 636.855 465.308V423.736H678.427C688.64 423.736 697 415.158 697 404.941C697 394.723 688.64 386.145 678.427 386.145Z" fill="white"/>
</svg>
