<svg width="1024" height="1024" viewBox="0 0 1024 1024" fill="none" xmlns="http://www.w3.org/2000/svg">
<path d="M64 288.25C64 164.4 164.4 64 288.25 64H736.75C860.6 64 961 164.4 961 288.25V736.75C961 860.6 860.6 961 736.75 961H288.25C164.4 961 64 860.6 64 736.75V288.25Z" fill="#00B8AD"/>
<path opacity="0.55" fill-rule="evenodd" clip-rule="evenodd" d="M421.597 353.202C421.597 311.74 391.208 277.727 351.861 272.221C356.02 272.221 360.178 272.221 364.017 272.545C384.49 272.545 404.963 274.164 425.116 277.404C425.165 277.404 425.207 277.411 425.244 277.426C455.584 282.289 484.649 291.027 513.077 302.994C558.501 322.43 599.447 350.287 634.636 385.919C669.822 421.551 697.335 463.013 716.528 509.011C728.636 537.407 736.936 566.768 741.742 597.092C741.872 597.21 742 597.327 742.13 597.447C745.328 617.853 746.928 638.584 746.928 659.641C746.928 664.823 746.928 670.005 746.606 675.187C743.09 633.076 708.22 600.362 665.996 600.362H577.387C574.535 589.136 570.746 578.549 566.012 567.965H565.858C554.982 543.347 539.628 520.996 520.435 501.561C500.921 481.801 478.209 466.253 453.897 455.239V454.911C443.344 450.054 432.79 446.168 421.597 443.254V353.202ZM577.387 567.968V567.965H665.984C666.396 567.965 666.807 567.968 667.219 567.973C666.917 567.97 666.616 567.968 666.314 567.968H577.387Z" fill="white"/>
<path d="M746.551 675.204C743.035 633.416 708.165 600.376 665.941 600.376H577.332H448.735C433.7 600.376 421.864 588.068 421.864 573.166V443.596V353.544C421.864 312.081 391.475 278.069 352.128 272.563C348.29 271.915 344.451 271.591 340.932 271.591C332.935 271.591 325.258 272.887 317.9 274.83C284.312 284.872 260 316.293 260 353.544V462.059V682.33C260 727.679 296.148 764.282 340.932 764.282H559.736H665.941C704.008 764.282 736.316 737.398 744.632 701.44C745.914 695.287 746.873 689.131 746.873 682.653C746.873 680.061 746.551 677.471 746.551 675.204Z" fill="white"/>
<path d="M738.768 341.707H682.293V285.232C682.293 271.357 670.64 260 656.76 260C642.88 260 631.227 271.357 631.227 285.232V341.707H574.752C560.877 341.707 549.52 353.36 549.52 367.24C549.52 381.12 560.877 392.773 574.752 392.773H631.227V449.248C631.227 463.123 642.88 474.48 656.76 474.48C670.64 474.48 682.293 463.123 682.293 449.248V392.773H738.768C752.643 392.773 764 381.12 764 367.24C764 353.36 752.643 341.707 738.768 341.707Z" fill="white"/>
</svg>
