<svg width="1024" height="1024" viewBox="0 0 1024 1024" fill="none" xmlns="http://www.w3.org/2000/svg">
<path d="M64 288.25C64 164.4 164.4 64 288.25 64H736.75C860.6 64 961 164.4 961 288.25V736.75C961 860.6 860.6 961 736.75 961H288.25C164.4 961 64 860.6 64 736.75V288.25Z" fill="#94D015"/>
<path opacity="0.5" d="M762.375 307.637H703.709L677.86 255.779C670.179 240.463 654.806 231 637.633 231H541.329C524.156 231 508.784 240.463 501.102 255.779L475.244 307.6H416.625C384.858 307.6 359 333.38 359 365.05V376.654C368.032 373.363 377.674 371.446 387.7 371.446H484.004C499.799 371.446 514.814 375.813 527.645 383.667C543.749 368.267 565.49 358.692 589.5 358.692C638.946 358.692 679.126 398.796 679.126 448.046C679.126 457.312 677.279 466.12 674.634 474.545C693.111 492.012 704.75 516.529 704.75 543.796V614H762.375C794.142 614 820 588.22 820 556.55V365.05C820 333.417 794.142 307.637 762.375 307.637Z" fill="white"/>
<path d="M608.375 486.8H549.709L523.86 434.844C516.179 419.487 500.806 410 483.633 410H387.329C370.156 410 354.784 419.487 347.102 434.844L321.244 486.8H262.625C230.858 486.8 205 512.647 205 544.4V736.4C205 768.153 230.858 794 262.625 794H608.375C640.142 794 666 768.153 666 736.4V544.4C666 512.684 640.142 486.8 608.375 486.8ZM525.126 627.613C525.126 677.038 484.9 717.2 435.5 717.2C386.1 717.2 345.874 677.038 345.874 627.613C345.874 578.188 386.1 538.025 435.5 538.025C484.9 538.025 525.126 578.188 525.126 627.613Z" fill="white"/>
</svg>
