<svg width="1024" height="1024" viewBox="0 0 1024 1024" fill="none" xmlns="http://www.w3.org/2000/svg">
<path d="M64 288.25C64 164.4 164.4 64 288.25 64H736.75C860.6 64 961 164.4 961 288.25V736.75C961 860.6 860.6 961 736.75 961H288.25C164.4 961 64 860.6 64 736.75V288.25Z" fill="#94D015"/>
<path opacity="0.5" d="M718 304.992C773.228 304.992 818 349.763 818 404.992V638C818 693.229 773.228 738 718 738L307 738C251.772 738 207 693.228 207 638L207 404.991C207 349.763 251.772 304.992 307 304.992L718 304.992Z" fill="white"/>
<path fill-rule="evenodd" clip-rule="evenodd" d="M405 551C405 610.647 453.353 659 513 659C572.647 659 621 610.647 621 551C621 491.353 572.647 443 513 443C453.353 443 405 491.353 405 551ZM428 551C428 597.944 466.056 636 513 636C559.944 636 598 597.944 598 551C598 504.056 559.944 466 513 466C466.056 466 428 504.056 428 551Z" fill="white"/>
<rect x="618" y="365" width="123" height="39" rx="19.5" fill="white"/>
</svg>
