<svg width="1024" height="1024" viewBox="0 0 1024 1024" fill="none" xmlns="http://www.w3.org/2000/svg">
<path d="M64 288.25C64 164.4 164.4 64 288.25 64H736.75C860.6 64 961 164.4 961 288.25V736.75C961 860.6 860.6 961 736.75 961H288.25C164.4 961 64 860.6 64 736.75V288.25Z" fill="#30B565"/>
<path d="M306.734 391.338C306.734 277.38 399.115 185 513.072 185C627.029 185 719.41 277.381 719.41 391.338V580.03C719.41 635.258 674.638 680.03 619.41 680.03H406.734C351.506 680.03 306.734 635.258 306.734 580.03V391.338Z" fill="white" fill-opacity="0.5"/>
<rect x="228" y="727.994" width="158.373" height="569" rx="79.1867" transform="rotate(-90 228 727.994)" fill="white"/>
<rect x="433.433" y="840.213" width="217.198" height="158.373" rx="79.1867" transform="rotate(-90 433.433 840.213)" fill="white" fill-opacity="0.5"/>
</svg>
