<svg width="1024" height="1024" viewBox="0 0 1024 1024" fill="none" xmlns="http://www.w3.org/2000/svg">
<path d="M63 288.25C63 164.4 163.4 64 287.25 64H735.75C859.6 64 960 164.4 960 288.25V736.75C960 860.6 859.6 961 735.75 961H287.25C163.4 961 63 860.6 63 736.75V288.25Z" fill="#5451D6"/>
<path opacity="0.9" d="M247 512.5C247 597.679 316.233 667 401.302 667H621.73C706.767 667 776 597.679 776 512.5C776 427.321 706.767 358 621.698 358H401.27C316.233 358 247 427.321 247 512.5Z" fill="white"/>
<path opacity="0.5" d="M710 512.5C710 561.376 670.6 601 622 601C573.4 601 534 561.376 534 512.5C534 463.624 573.4 424 622 424C670.6 424 710 463.624 710 512.5Z" fill="#5451D6"/>
</svg>
