<svg width="1024" height="1024" viewBox="0 0 1024 1024" fill="none" xmlns="http://www.w3.org/2000/svg">
<rect width="1024" height="1024" fill="white"/>
<rect width="1024" height="1024" fill="#F1B928"/>
<path d="M404.75 824.263L391.625 824.237C347.25 824.15 311.084 780.988 311.188 728.238L312.035 295.841C312.138 243.091 348.473 200.071 392.848 200.158L405.973 200.184C450.661 200.271 486.514 243.433 486.411 296.182L485.564 728.208C485.46 781.329 449.438 824.35 404.75 824.263Z" fill="white"/>
<path opacity="0.55" fill-rule="evenodd" clip-rule="evenodd" d="M711.88 375.39C712.069 278.806 646.597 200.668 565.346 200.509C563.471 200.505 561.596 200.501 559.721 200.498C558.471 200.495 556.909 200.492 555.659 200.49L418.158 200.22C381.595 200.149 351.839 235.381 351.753 278.843L351.729 291.473C351.644 334.936 381.262 370.284 417.825 370.356L418.137 370.357C418.134 371.843 418.131 373.328 418.128 374.814C418.037 421.249 433.267 463.627 458.206 494.88L386.331 494.739L386.225 548.603L552.163 548.928C556.225 549.308 560.6 549.688 564.662 549.696C568.725 549.704 573.1 549.341 577.164 548.977L577.476 548.978C652.804 541.324 711.701 466.401 711.88 375.39Z" fill="white"/>
</svg>
