<svg width="1024" height="1024" viewBox="0 0 1024 1024" fill="none" xmlns="http://www.w3.org/2000/svg">
<path d="M64 288.25C64 164.4 164.4 64 288.25 64H736.75C860.6 64 961 164.4 961 288.25V736.75C961 860.6 860.6 961 736.75 961H288.25C164.4 961 64 860.6 64 736.75V288.25Z" fill="#F1B928"/>
<path opacity="0.5" d="M714.61 270H492.39C470.089 270 452 288.118 452 310.455V492.545C452 514.882 470.089 533 492.39 533H714.61C736.911 533 755 514.882 755 492.545V310.455C755 288.118 736.911 270 714.61 270ZM694.4 492.545H512.6C501.45 492.545 492.39 483.471 492.39 472.303V350.909H714.61V472.303C714.61 483.502 705.55 492.545 694.4 492.545Z" fill="white"/>
<path d="M533.61 572.93V694.31C533.61 705.447 524.52 714.55 513.4 714.55H331.6C320.48 714.55 311.39 705.447 311.39 694.31V572.93H493.19C448.558 572.93 412.38 536.729 412.38 492H311.39C289.18 492 271 510.207 271 532.48V714.55C271 736.793 289.18 755 311.39 755H533.61C555.82 755 574 736.793 574 714.55V572.93H533.61Z" fill="white"/>
<path opacity="0.5" d="M396.782 371.031H371.532V350.812C371.532 339.688 380.595 330.624 391.75 330.624C402.905 330.624 411.969 321.561 411.969 310.406C411.969 299.251 402.905 290.218 391.75 290.218C358.316 290.218 331.125 317.408 331.125 350.843V371.061H305.845C299.843 371.061 294.447 374.577 291.992 380.064C289.567 385.52 290.537 391.916 294.568 396.372L340.037 446.903C342.947 450.056 347.039 451.874 351.313 451.874C355.618 451.874 359.71 450.056 362.59 446.873L408.058 396.342C410.605 393.492 411.938 389.855 411.938 386.187C411.938 384.096 411.514 382.004 410.635 380.034C408.21 374.577 402.784 371.031 396.782 371.031Z" fill="white"/>
<path d="M731.432 628.657L685.963 578.126C683.053 574.943 678.961 573.124 674.687 573.124C670.413 573.124 666.29 574.943 663.411 578.126L617.942 628.657C615.396 631.506 614.062 635.143 614.062 638.811C614.062 640.903 614.486 642.994 615.366 644.965C617.791 650.421 623.216 653.967 629.218 653.967H654.469V674.186C654.469 685.311 645.405 694.374 634.25 694.374C623.095 694.374 614.032 703.437 614.032 714.592C614.032 725.747 623.095 734.811 634.25 734.811C667.685 734.811 694.875 707.621 694.875 674.186V653.967H720.125C726.127 653.967 731.523 650.451 733.978 644.965C736.403 639.508 735.433 633.143 731.432 628.657Z" fill="white"/>
</svg>
