<svg width="1024" height="1024" viewBox="0 0 1024 1024" fill="none" xmlns="http://www.w3.org/2000/svg">
<ellipse cx="511.716" cy="512" rx="419.716" ry="421" fill="#405261"/>
<path d="M533.871 305.536C585.058 254.349 668.049 254.349 719.236 305.536V305.536C770.423 356.723 770.423 439.714 719.236 490.901L540.822 669.315L355.458 483.95L533.871 305.536Z" fill="white"/>
<rect x="459.725" y="419.844" width="202.071" height="57.8905" rx="28.9452" transform="rotate(135 459.725 419.844)" fill="white"/>
<rect x="645.09" y="605.209" width="202.071" height="57.8905" rx="28.9452" transform="rotate(135 645.09 605.209)" fill="white"/>
<rect opacity="0.5" x="541.595" y="470.82" width="247.682" height="57.8905" rx="28.9452" transform="rotate(135 541.595 470.82)" fill="white"/>
<rect opacity="0.5" x="594.887" y="524.112" width="342.576" height="57.8905" rx="28.9452" transform="rotate(135 594.887 524.112)" fill="white"/>
<path fill-rule="evenodd" clip-rule="evenodd" d="M584.149 440.753C604.469 461.072 637.412 461.072 657.732 440.753C678.051 420.434 678.051 387.49 657.732 367.171C637.412 346.852 604.469 346.852 584.149 367.171C563.83 387.49 563.83 420.434 584.149 440.753ZM593.762 431.804C608.772 446.815 633.109 446.815 648.12 431.804C663.13 416.793 663.13 392.457 648.12 377.446C633.109 362.435 608.772 362.435 593.762 377.446C578.751 392.457 578.751 416.793 593.762 431.804Z" fill="#405261"/>
<ellipse cx="623.154" cy="404.617" rx="42.2433" ry="41.3812" transform="rotate(45 623.154 404.617)" fill="#405261"/>
</svg>
