<svg width="1024" height="1024" viewBox="0 0 1024 1024" fill="none" xmlns="http://www.w3.org/2000/svg">
<path d="M64 288.25C64 164.4 164.4 64 288.25 64H736.75C860.6 64 961 164.4 961 288.25V736.75C961 860.6 860.6 961 736.75 961H288.25C164.4 961 64 860.6 64 736.75V288.25Z" fill="#BC4C4C"/>
<path d="M512 518.549C512 513.904 512.387 509.645 512.387 505C512.387 509.645 512 514.291 512 518.549Z" fill="white"/>
<path d="M508 525.711C509.933 516.807 512.64 507.517 515.346 499C512.253 507.904 509.933 516.807 508 525.711Z" fill="white"/>
<path d="M511 518.162C511.773 513.517 512.933 509.258 513.706 505C512.933 509.258 511.773 513.517 511 518.162Z" fill="white"/>
<path d="M512 508C512.387 510.71 512.773 513.42 512.773 516.517C512.773 513.807 512.387 511.097 512 508Z" fill="white"/>
<path d="M511 508C511.773 510.71 512.547 513.42 513.32 516.129C512.547 513.42 512.16 510.71 511 508Z" fill="white"/>
<path d="M508 504C511.093 509.032 513.413 514.065 515.346 519.098C513.413 513.678 510.706 508.645 508 504Z" fill="white"/>
<path d="M514.8 515.194C512.866 512.871 510.933 510.936 509 509C510.933 510.936 512.866 513.258 514.8 515.194Z" fill="white"/>
<path d="M507 508C510.48 510.323 513.959 513.033 517.053 516.13C513.959 513.033 510.48 510.323 507 508Z" fill="white"/>
<path d="M510 525.711C510.773 516.807 512.32 507.904 513.866 499C511.933 507.517 510.773 516.42 510 525.711Z" fill="white"/>
<path d="M515.733 519.485C513.026 514.452 510.32 509.42 508 504C510.32 509.033 513.026 514.452 515.733 519.485Z" fill="white"/>
<path d="M521.559 520.42C514.986 515.001 508.8 508.807 503 503C508.8 509.194 514.986 515.001 521.559 520.42Z" fill="white"/>
<path d="M516.279 519.323C513.186 514.678 510.093 509.645 507 505C510.093 509.645 513.186 514.291 516.279 519.323Z" fill="white"/>
<path d="M522.878 525.098C515.532 516.581 508.573 507.291 502 498C508.573 507.678 515.532 516.581 522.878 525.098Z" fill="white"/>
<path d="M528.478 510C517.652 511.936 506.826 513.484 496 514.645C507.213 513.871 518.038 512.323 528.478 510Z" fill="white"/>
<path d="M518.146 517.452C513.506 513.968 509.253 510.484 505 507C509.253 510.484 513.506 513.968 518.146 517.452Z" fill="white"/>
<path d="M512.387 516.291C512.387 513.194 512.387 510.097 512 507C512 510.484 512 513.581 512.387 516.291Z" fill="white"/>
<path d="M513.866 520.42C512.32 514.613 511.16 508.807 510 503C511.16 508.807 512.32 514.613 513.866 520.42Z" fill="white"/>
<path d="M514.026 520.646C512.093 515.226 510.547 509.42 509 504C510.547 509.42 512.093 515.226 514.026 520.646Z" fill="white"/>
<path d="M513.093 520.42C511.933 514.613 511.16 508.807 510 503C511.16 508.807 511.933 515.001 513.093 520.42Z" fill="white"/>
<path d="M511 518.775C511.387 514.517 511.773 510.258 512.16 506C511.387 510.258 511 514.517 511 518.775Z" fill="white"/>
<path d="M514.8 520.259C512.866 514.839 510.933 509.42 509 504C510.547 509.42 512.48 514.839 514.8 520.259Z" fill="white"/>
<path d="M512.933 520.807C512.16 515.001 511.387 508.807 511 503C511.387 509.194 512.16 515.001 512.933 520.807Z" fill="white"/>
<path d="M64 288.25C64 164.4 164.4 64 288.25 64H736.75C860.6 64 961 164.4 961 288.25V736.75C961 860.6 860.6 961 736.75 961H288.25C164.4 961 64 860.6 64 736.75V288.25Z" fill="url(#paint0_linear)"/>
<path opacity="0.6" d="M357.467 550.029H230.954C222.52 550.029 216.897 544.378 216.897 535.902C216.897 531.664 218.303 528.838 221.115 526.013L249.229 497.758C200.029 438.423 208.463 349.421 268.908 299.975C329.353 250.529 417.913 259.005 467.112 319.753C516.312 380.501 507.877 469.503 447.432 518.949C420.724 538.728 389.799 550.029 357.467 550.029Z" fill="white"/>
<path d="M587.206 765.013H786.012C799.266 765.013 808.102 756.133 808.102 742.812C808.102 736.152 805.893 731.712 801.475 727.272L757.296 682.872C834.609 589.631 821.355 449.77 726.37 372.07C631.385 294.369 492.221 307.689 414.907 403.15C337.594 498.611 350.847 638.472 445.833 716.172C487.803 747.253 536.4 765.013 587.206 765.013Z" fill="white"/>
<circle cx="485.625" cy="523.156" r="26.8729" fill="#F97777"/>
<ellipse cx="700.612" cy="523.156" rx="26.873" ry="26.8729" fill="#F97777"/>
<path d="M633.429 634.084C633.429 639.607 628.952 644.084 623.429 644.084L562.81 644.084C557.287 644.084 552.81 639.607 552.81 634.084L552.81 603.775L633.429 603.775L633.429 634.084Z" fill="#F97777"/>
<defs>
<linearGradient id="paint0_linear" x1="512.5" y1="64" x2="512.5" y2="961" gradientUnits="userSpaceOnUse">
<stop stop-color="#F97777"/>
<stop offset="1" stop-color="#F9778E"/>
</linearGradient>
</defs>
</svg>
