<svg width="1024" height="1024" viewBox="0 0 1024 1024" fill="none" xmlns="http://www.w3.org/2000/svg">
<path d="M283 506.468C283 501.823 283.387 497.564 283.387 492.919C283.387 497.564 283 502.21 283 506.468Z" fill="white"/>
<path d="M291.892 433.306C293.825 424.402 296.531 415.111 299.238 406.595C296.145 415.498 293.825 424.402 291.892 433.306Z" fill="white"/>
<path d="M288.802 447.628C289.576 442.983 290.735 438.724 291.509 434.466C290.735 438.724 289.576 442.983 288.802 447.628Z" fill="white"/>
<path d="M825.839 728.672C826.225 731.382 826.612 734.092 826.612 737.189C826.612 734.479 826.225 731.769 825.839 728.672Z" fill="white"/>
<path d="M821.973 712.414C822.746 715.124 823.519 717.834 824.292 720.544C823.519 717.834 823.133 715.124 821.973 712.414Z" fill="white"/>
<path d="M811.92 689.188C815.013 694.22 817.333 699.253 819.266 704.285C817.333 698.866 814.626 693.833 811.92 689.188Z" fill="white"/>
<path d="M801.869 675.25C799.936 672.927 798.003 670.991 796.07 669.056C798.003 670.991 799.936 673.314 801.869 675.25Z" fill="white"/>
<path d="M782.925 658.219C786.405 660.542 789.884 663.252 792.977 666.349C789.884 663.252 786.405 660.542 782.925 658.219Z" fill="white"/>
<path d="M284.936 475.887C285.709 466.983 287.255 458.08 288.802 449.176C286.869 457.693 285.709 466.596 284.936 475.887Z" fill="white"/>
<path d="M323.982 676.411C321.275 671.379 318.569 666.346 316.249 660.927C318.569 665.959 321.275 671.379 323.982 676.411Z" fill="white"/>
<path d="M402.857 775.899C396.284 770.48 390.098 764.286 384.298 758.479C390.098 764.673 396.284 770.48 402.857 775.899Z" fill="white"/>
<path d="M341.382 705.831C338.289 701.186 335.196 696.154 332.103 691.508C335.196 696.154 338.289 700.799 341.382 705.831Z" fill="white"/>
<path d="M366.899 739.512C359.553 730.996 352.594 721.705 346.021 712.414C352.594 722.092 359.553 730.996 366.899 739.512Z" fill="white"/>
<path d="M699.796 856.806C688.97 858.742 678.144 860.29 667.318 861.451C678.53 860.677 689.356 859.129 699.796 856.806Z" fill="white"/>
<path d="M422.575 792.16C417.936 788.676 413.683 785.192 409.43 781.708C413.683 785.192 417.936 788.676 422.575 792.16Z" fill="white"/>
<path d="M283.387 524.664C283.387 521.567 283.387 518.47 283 515.373C283 518.857 283 521.954 283.387 524.664Z" fill="white"/>
<path d="M293.052 595.504C291.505 589.697 290.345 583.891 289.186 578.084C290.345 583.891 291.505 589.697 293.052 595.504Z" fill="white"/>
<path d="M300.401 620.668C298.468 615.249 296.921 609.442 295.375 604.022C296.921 609.442 298.468 615.249 300.401 620.668Z" fill="white"/>
<path d="M289.189 578.085C288.029 572.278 287.256 566.471 286.096 560.665C287.256 566.471 288.029 572.665 289.189 578.085Z" fill="white"/>
<path d="M283.771 490.597C284.157 486.338 284.544 482.08 284.93 477.822C284.157 482.08 283.771 486.338 283.771 490.597Z" fill="white"/>
<path d="M306.201 636.927C304.268 631.507 302.335 626.087 300.402 620.668C301.948 626.087 303.882 631.507 306.201 636.927Z" fill="white"/>
<path d="M286.481 560.665C285.708 554.858 284.934 548.665 284.548 542.858C284.934 549.052 285.708 554.858 286.481 560.665Z" fill="white"/>
<path d="M64 288.25C64 164.4 164.4 64 288.25 64H736.75C860.6 64 961 164.4 961 288.25V736.75C961 860.6 860.6 961 736.75 961H288.25C164.4 961 64 860.6 64 736.75V288.25Z" fill="#41C0D1"/>
<path opacity="0.5" d="M697.347 567.41C669.122 567.41 643.776 578.204 626.265 595.315C603.078 617.223 576.133 627.937 544.23 627.937C526.88 627.937 510.648 625.059 496.016 619.302C482.344 613.945 470.27 606.109 460.276 596.114C440.207 576.125 429.253 548.62 428.373 516.318C359.451 484.815 303.961 429.165 272.538 360.243C266.061 371.117 260.305 382.471 255.347 394.224C239.836 430.764 232 470.343 232 512C232 553.657 239.836 593.236 255.347 629.776C270.459 665.437 292.367 697.019 320.512 723.565C348.337 749.871 381.199 770.419 418.299 784.492C455.718 798.724 496.256 806 538.633 806C586.207 806 630.423 797.365 669.922 780.254C710.14 762.904 744.361 737.397 771.546 704.375C772.346 703.416 773.146 702.376 773.865 701.337C785.779 687.345 792.815 669.994 792.815 651.204C792.735 604.909 750.038 567.41 697.347 567.41Z" fill="white"/>
<path d="M428.373 516.318C428.373 514.878 428.293 513.439 428.293 512C428.293 477.859 439.327 448.754 460.276 427.886C470.27 417.891 482.264 410.135 496.016 404.698C510.649 398.942 526.8 396.063 544.23 396.063C572.935 396.063 597.561 404.778 618.99 422.609C636.74 440.919 663.126 452.512 692.629 452.512C745.96 452.512 789.217 414.533 789.217 367.679C789.217 343.532 777.703 321.704 759.313 306.272C734.287 279.726 704.303 258.778 669.842 243.826C630.343 226.715 585.888 218 537.914 218C495.617 218 455.239 225.196 417.899 239.508C380.959 253.581 348.177 274.129 320.352 300.435C301.562 318.265 285.571 338.255 272.538 360.243C303.961 429.165 359.451 484.815 428.373 516.318Z" fill="white"/>
<path d="M64 288.25C64 164.4 164.4 64 288.25 64H736.75C860.6 64 961 164.4 961 288.25V736.75C961 860.6 860.6 961 736.75 961H288.25C164.4 961 64 860.6 64 736.75V288.25Z" fill="url(#paint0_linear)"/>
<path fill-rule="evenodd" clip-rule="evenodd" d="M718.691 267.864H389.327C355.857 267.864 328.796 295.951 328.796 329.875V436.023V706.683C328.796 731.488 310.28 751.55 286.423 753.374H713.35C750.738 753.374 779.579 723.827 779.579 687.35V329.875C779.223 295.951 752.162 267.864 718.691 267.864Z" fill="white"/>
<path opacity="0.5" fill-rule="evenodd" clip-rule="evenodd" d="M669.197 479.434H435.616C423.866 479.434 413.54 468.855 413.54 456.818V366.719C413.54 354.682 423.866 344.104 435.616 344.104H669.553C681.304 344.104 691.63 354.682 691.63 366.719V456.818C691.274 469.22 681.304 479.434 669.197 479.434ZM669.197 568.064H435.616C423.866 568.064 413.54 557.486 413.54 545.449C413.54 533.411 423.866 522.833 435.616 522.833H669.553C681.304 522.833 691.63 533.411 691.63 545.449C691.274 557.851 681.304 568.064 669.197 568.064ZM435.616 658.539H669.197C681.304 658.539 691.274 647.961 691.63 635.923C691.63 623.886 681.304 613.307 669.553 613.307H435.616C423.866 613.307 413.54 623.886 413.54 635.923C413.54 647.961 423.866 658.539 435.616 658.539Z" fill="url(#paint1_linear)"/>
<path opacity="0.75" d="M322.385 534.873H310.991H283.218C264.346 534.873 249.035 550.558 249.035 569.891V585.211V605.639V721.636C249.035 739.51 266.839 754.1 288.915 754.1C310.991 754.1 328.795 739.874 328.795 721.636V534.873H322.385Z" fill="white"/>
<defs>
<linearGradient id="paint0_linear" x1="64" y1="64" x2="1384.02" y2="1440.08" gradientUnits="userSpaceOnUse">
<stop stop-color="#7150F1"/>
<stop offset="1" stop-color="#B343E8"/>
</linearGradient>
<linearGradient id="paint1_linear" x1="288.101" y1="215.806" x2="774.644" y2="724.666" gradientUnits="userSpaceOnUse">
<stop stop-color="#3E3BBA"/>
<stop offset="1" stop-color="#B343E8"/>
</linearGradient>
</defs>
</svg>
