<svg width="1024" height="1024" viewBox="0 0 1024 1024" fill="none" xmlns="http://www.w3.org/2000/svg">
<ellipse cx="511.716" cy="512" rx="419.716" ry="421" fill="#434E5B"/>
<g filter="url(#filter0_d)">
<path d="M280.75 458.25C280.75 414.136 316.511 378.375 360.625 378.375H644.625C688.739 378.375 724.5 414.136 724.5 458.25V671.25C724.5 715.364 688.739 751.125 644.625 751.125H360.625C316.511 751.125 280.75 715.364 280.75 671.25V458.25Z" fill="white"/>
</g>
<path d="M254.125 387.25H378.375V431.625C378.375 461.034 354.534 484.875 325.125 484.875H307.375C277.966 484.875 254.125 461.034 254.125 431.625V387.25Z" fill="#F54336"/>
<path d="M378.375 387.25H502.625V431.625C502.625 461.034 478.784 484.875 449.375 484.875H431.625C402.216 484.875 378.375 461.034 378.375 431.625V387.25Z" fill="#17C1B7"/>
<path d="M502.625 387.25H626.875V431.625C626.875 461.034 603.034 484.875 573.625 484.875H555.875C526.466 484.875 502.625 461.034 502.625 431.625V387.25Z" fill="#FFA001"/>
<path d="M626.875 387.25H751.125V431.625C751.125 461.034 727.284 484.875 697.875 484.875H680.125C650.716 484.875 626.875 461.034 626.875 431.625V387.25Z" fill="#006EEF"/>
<path d="M276.879 324.677C284.531 303.633 304.531 289.625 326.923 289.625H396.125L378.375 387.25H254.125L276.879 324.677Z" fill="#F96260"/>
<path d="M728.371 324.677C720.719 303.633 700.719 289.625 678.327 289.625H609.125L626.875 387.25H751.125L728.371 324.677Z" fill="#4096FC"/>
<path d="M609.125 289.625H502.625V387.25H626.875L609.125 289.625Z" fill="#FFCA28"/>
<path d="M396.125 289.625H502.625V387.25H378.375L396.125 289.625Z" fill="#0FDBCF"/>
<path d="M458.25 600.25C458.25 629.659 434.409 653.5 405 653.5C375.591 653.5 351.75 629.659 351.75 600.25C351.75 570.841 375.591 547 405 547C434.409 547 458.25 570.841 458.25 600.25Z" fill="#D7DEE3"/>
<path d="M538.125 591.375C538.125 581.572 546.072 573.625 555.875 573.625H626.875C636.678 573.625 644.625 581.572 644.625 591.375V751.125H538.125V591.375Z" fill="#D7DEE3"/>
<defs>
<filter id="filter0_d" x="274.75" y="373.375" width="455.75" height="384.75" filterUnits="userSpaceOnUse" color-interpolation-filters="sRGB">
<feFlood flood-opacity="0" result="BackgroundImageFix"/>
<feColorMatrix in="SourceAlpha" type="matrix" values="0 0 0 0 0 0 0 0 0 0 0 0 0 0 0 0 0 0 127 0"/>
<feOffset dy="1"/>
<feGaussianBlur stdDeviation="3"/>
<feColorMatrix type="matrix" values="0 0 0 0 0 0 0 0 0 0 0 0 0 0 0 0 0 0 0.2 0"/>
<feBlend mode="normal" in2="BackgroundImageFix" result="effect1_dropShadow"/>
<feBlend mode="normal" in="SourceGraphic" in2="effect1_dropShadow" result="shape"/>
</filter>
</defs>
</svg>
