<svg width="1024" height="1024" viewBox="0 0 1024 1024" fill="none" xmlns="http://www.w3.org/2000/svg">
<path d="M64 288.25C64 164.4 164.4 64 288.25 64H736.75C860.6 64 961 164.4 961 288.25V736.75C961 860.6 860.6 961 736.75 961H288.25C164.4 961 64 860.6 64 736.75V288.25Z" fill="#B343E8"/>
<path fill-rule="evenodd" clip-rule="evenodd" d="M595.873 430.541C619.442 454.11 657.655 454.11 681.224 430.541C704.793 406.972 704.793 368.758 681.224 345.189C657.655 321.62 619.442 321.62 595.873 345.189C572.304 368.758 572.304 406.972 595.873 430.541ZM607.022 420.16C624.434 437.572 652.663 437.572 670.075 420.16C687.486 402.749 687.486 374.519 670.075 357.108C652.663 339.696 624.434 339.696 607.022 357.108C589.611 374.519 589.611 402.749 607.022 420.16Z" fill="#B343E8"/>
<ellipse cx="641.116" cy="388.625" rx="49" ry="48" transform="rotate(45 641.116 388.625)" fill="#B343E8"/>
<path d="M726.83 289.039C639.582 287.475 540.07 333.068 477.072 403.833C416.867 404.978 358.255 429.647 315.092 472.81C312.577 475.296 311.683 478.984 312.773 482.337C313.89 485.689 316.796 488.148 320.316 488.65L392.087 498.931L383.231 508.849C379.934 512.537 380.102 518.152 383.594 521.644L503.305 641.355C505.121 643.171 507.495 644.093 509.898 644.093C512.105 644.093 514.34 643.311 516.1 641.719L526.018 632.862L536.299 704.633C536.801 708.125 539.567 710.696 542.892 711.813C543.758 712.092 544.652 712.232 545.546 712.232C548.172 712.232 550.882 711.087 552.754 709.243C595.33 666.694 619.971 608.082 621.116 547.877C691.965 484.767 737.921 385.283 735.91 298.119C735.826 293.174 731.803 289.179 726.83 289.039ZM641.007 449.818C631.928 458.897 619.998 463.423 608.097 463.423C596.168 463.423 584.239 458.897 575.159 449.818C557.028 431.659 557.028 402.129 575.159 383.97C593.318 365.811 622.848 365.811 641.007 383.97C659.166 402.129 659.166 431.659 641.007 449.818Z" fill="white"/>
<path opacity="0.5" d="M339.732 603.836C319.785 623.755 292.434 713.825 289.389 724.022C288.411 727.318 289.305 730.866 291.736 733.269C293.496 735.057 295.871 736.007 298.301 736.007C299.195 736.007 300.089 735.867 300.983 735.616C311.18 732.57 401.222 705.192 421.169 685.245C443.631 662.783 443.631 626.269 421.169 603.836C398.708 581.374 362.194 581.402 339.732 603.836Z" fill="white"/>
</svg>
