<svg width="1024" height="1024" viewBox="0 0 1024 1024" fill="none" xmlns="http://www.w3.org/2000/svg">
<path d="M64 288.25C64 164.4 164.4 64 288.25 64H736.75C860.6 64 961 164.4 961 288.25V736.75C961 860.6 860.6 961 736.75 961H288.25C164.4 961 64 860.6 64 736.75V288.25Z" fill="#3D4166"/>
<path d="M290.028 437.448L505.677 526.656C508.128 527.846 510.579 527.846 513.029 527.846C515.479 527.846 517.93 527.251 520.38 526.656L736.03 437.448C742.769 434.474 747.057 427.932 747.057 420.795C747.057 413.657 742.769 407.116 736.03 404.142L520.38 314.338C515.478 312.554 510.578 312.554 505.676 314.338L290.028 404.143C283.288 407.116 279 413.658 279 420.795C279 427.931 283.288 434.474 290.028 437.448Z" fill="white"/>
<path opacity="0.5" d="M720.652 583.146L512.545 673.593L304.44 583.146C295.259 578.81 284.241 583.765 280.569 593.058C276.284 602.351 281.18 613.501 290.362 617.217L505.812 710.762C508.261 712.001 510.709 712.001 513.157 712.001C515.605 712.001 518.054 711.382 520.501 710.762L735.952 617.217C745.134 612.881 749.418 602.349 745.745 593.057C740.85 583.766 729.833 579.43 720.652 583.146Z" fill="white"/>
<path opacity="0.5" d="M289.863 531.12L505.549 618.753C508 619.921 510.451 619.921 512.901 619.921C515.353 619.921 517.804 619.338 520.254 618.753L735.94 531.12C745.132 527.615 749.421 517.099 745.744 508.335C741.455 499.572 731.038 495.483 721.846 498.988L512.9 583.116L304.569 498.404C295.377 494.899 284.348 498.988 280.671 507.752C276.382 516.515 280.671 527.031 289.863 531.12Z" fill="white"/>
</svg>
