<svg width="1024" height="1024" viewBox="0 0 1024 1024" fill="none" xmlns="http://www.w3.org/2000/svg">
<path d="M64 288.25C64 164.4 164.4 64 288.25 64H736.75C860.6 64 961 164.4 961 288.25V736.75C961 860.6 860.6 961 736.75 961H288.25C164.4 961 64 860.6 64 736.75V288.25Z" fill="#4EBFFE"/>
<path opacity="0.5" d="M707.25 491.439H556.156C546.249 491.439 537.605 484.705 535.209 475.089L513.615 388.745C510.216 375.148 520.544 361.939 534.562 361.939H715.603L729.621 312.826C732.891 301.365 744.87 294.728 756.298 297.998C767.759 301.268 774.396 313.214 771.126 324.675L727.97 475.769C725.348 485.028 716.865 491.439 707.25 491.439Z" fill="white"/>
<path opacity="0.5" d="M599.344 556.188C611.27 556.188 620.938 546.52 620.938 534.594C620.938 522.668 611.27 513 599.344 513C587.418 513 577.75 522.668 577.75 534.594C577.75 546.52 587.418 556.188 599.344 556.188Z" fill="white"/>
<path opacity="0.5" d="M685.656 556.188C697.582 556.188 707.25 546.52 707.25 534.594C707.25 522.668 697.582 513 685.656 513C673.73 513 664.062 522.668 664.062 534.594C664.062 546.52 673.73 556.188 685.656 556.188Z" fill="white"/>
<path d="M642.5 728.844H593.938V682.451C609.737 676.04 620.906 660.565 620.906 642.5C620.906 618.704 601.546 599.344 577.75 599.344C553.954 599.344 534.594 618.704 534.594 642.5C534.594 660.565 545.763 676.04 561.562 682.451V728.844H513V555.541C513 543.627 503.32 533.947 491.406 533.947C479.492 533.947 469.812 543.627 469.812 555.541V728.844H426.656V658.688C426.656 649.752 419.404 642.5 410.468 642.5H356.499C347.564 642.5 340.312 649.752 340.312 658.688V728.844H297.156V394.281H448.25C460.164 394.281 469.844 384.601 469.844 372.687C469.844 371.716 469.844 334.905 469.844 334.905C469.844 314.088 452.912 297.123 432.062 297.123H405.094V275.594C405.094 263.648 395.414 254 383.5 254C371.586 254 361.906 263.68 361.906 275.594V297.188H334.938C314.12 297.188 297.156 314.12 297.156 334.97V351.125C273.36 351.125 254 370.485 254 394.281V750.406C254 762.352 263.648 772 275.594 772H642.5C654.414 772 664.094 762.32 664.094 750.406C664.094 738.492 654.414 728.844 642.5 728.844Z" fill="white"/>
<path d="M410.468 545.375H356.499C347.564 545.375 340.312 552.627 340.312 561.562C340.312 570.498 347.564 577.75 356.499 577.75H410.468C419.404 577.75 426.656 570.498 426.656 561.562C426.656 552.627 419.404 545.375 410.468 545.375Z" fill="white"/>
<path d="M410.468 415.875H356.499C347.564 415.875 340.312 423.127 340.312 432.062C340.312 440.998 347.564 448.25 356.499 448.25H410.468C419.404 448.25 426.656 440.998 426.656 432.062C426.656 423.127 419.404 415.875 410.468 415.875Z" fill="white"/>
<path d="M410.468 480.625H356.499C347.564 480.625 340.312 487.877 340.312 496.812C340.312 505.748 347.564 513 356.499 513H410.468C419.404 513 426.656 505.748 426.656 496.812C426.656 487.877 419.404 480.625 410.468 480.625Z" fill="white"/>
</svg>
