<svg width="1024" height="1024" viewBox="0 0 1024 1024" fill="none" xmlns="http://www.w3.org/2000/svg">
<path d="M64 288.25C64 164.4 164.4 64 288.25 64H736.75C860.6 64 961 164.4 961 288.25V736.75C961 860.6 860.6 961 736.75 961H288.25C164.4 961 64 860.6 64 736.75V288.25Z" fill="#00B8AD"/>
<rect x="573.478" y="288.396" width="137.637" height="395.478" rx="68.8187" transform="rotate(90 573.478 288.396)" fill="white" fill-opacity="0.5"/>
<rect x="592.71" y="798.571" width="159.659" height="572.571" rx="79.8297" transform="rotate(-180 592.71 798.571)" fill="white"/>
<rect x="560.632" y="596.703" width="137.637" height="382.632" rx="68.8187" transform="rotate(90 560.632 596.703)" fill="white" fill-opacity="0.5"/>
<rect x="846" y="413.187" width="183.516" height="382.632" rx="91.7582" transform="rotate(90 846 413.187)" fill="white" fill-opacity="0.5"/>
</svg>
