<svg width="1024" height="1024" viewBox="0 0 1024 1024" fill="none" xmlns="http://www.w3.org/2000/svg">
<path d="M64 288.25C64 164.4 164.4 64 288.25 64H736.75C860.6 64 961 164.4 961 288.25V736.75C961 860.6 860.6 961 736.75 961H288.25C164.4 961 64 860.6 64 736.75V288.25Z" fill="#CED124"/>
<path d="M723.459 392.983H628.313C621.223 392.983 615.141 387.969 613.746 381.026L602.68 324.983C600.455 313.68 611.432 304.275 622.261 308.162L645.728 316.617L662.55 282.588C667.564 272.471 684.149 272.471 689.133 282.588L705.955 316.617L729.422 308.162C740.192 304.275 751.258 313.62 749.003 324.983L737.937 381.026C736.631 387.969 730.55 392.983 723.459 392.983Z" fill="white"/>
<path d="M723.459 749H628.313C621.223 749 615.141 743.986 613.746 737.044L602.68 681.001C600.455 669.668 611.492 660.263 622.261 664.179L645.729 672.635L662.55 638.605C667.564 628.488 684.149 628.488 689.133 638.605L705.955 672.635L729.422 664.179C740.103 660.293 751.258 669.608 749.003 681.001L737.937 737.044C736.632 743.986 730.55 749 723.459 749Z" fill="white"/>
<path d="M723.459 570.991H628.313C621.223 570.991 615.141 565.978 613.746 559.035L602.68 502.992C600.455 491.659 611.492 482.254 622.261 486.17L645.729 494.626L662.55 460.596C667.564 450.48 684.149 450.48 689.133 460.596L705.955 494.626L729.422 486.17C740.103 482.284 751.258 491.6 749.003 502.992L737.937 559.035C736.632 565.978 730.55 570.991 723.459 570.991Z" fill="white"/>
<path opacity="0.5" d="M353.485 512C331.714 512 314 494.28 314 472.5C314 450.72 331.714 433 353.485 433C375.257 433 393 450.691 393 472.47C393 494.25 375.286 512 353.485 512Z" fill="white"/>
<path opacity="0.5" d="M418.187 611H289.813C281.636 611 275 604.278 275 595.996V586.004C275 555.666 299.353 531 329.306 531H378.694C408.647 531 433 555.666 433 586.004V595.996C433 604.278 426.364 611 418.187 611Z" fill="white"/>
<path d="M541.212 540.982C552.13 540.982 561 532.114 561 521.199C561 510.285 552.13 501.417 541.212 501.417H511.546V374.535H541.212C552.13 374.535 561 365.667 561 354.753C561 343.838 552.13 335 541.212 335H511.546C489.741 335 472 352.736 472 374.535V669.465C472 691.264 489.741 709 511.546 709H541.212C552.13 709 561 700.132 561 689.217C561 678.303 552.13 669.494 541.212 669.494H511.546V540.982H541.212Z" fill="white"/>
</svg>
