<svg width="1024" height="1024" viewBox="0 0 1024 1024" fill="none" xmlns="http://www.w3.org/2000/svg">
<ellipse cx="511.716" cy="512" rx="419.716" ry="421" fill="#94D015"/>
<path d="M697 324C741.183 324 777 359.817 777 404V619.605C777 663.787 741.183 699.605 697 699.605L327 699.605C282.817 699.605 247 663.787 247 619.605L247 404C247 359.817 282.817 324 327 324L697 324Z" fill="white"/>
<path opacity="0.5" fill-rule="evenodd" clip-rule="evenodd" d="M418.751 537.395C418.751 589.135 460.694 631.078 512.434 631.078C564.173 631.078 606.116 589.135 606.116 537.395C606.116 485.656 564.173 443.713 512.434 443.713C460.694 443.713 418.751 485.656 418.751 537.395ZM438.702 537.395C438.702 578.116 471.713 611.127 512.434 611.127C553.155 611.127 586.165 578.116 586.165 537.395C586.165 496.674 553.155 463.664 512.434 463.664C471.713 463.664 438.702 496.674 438.702 537.395Z" fill="#8FC718"/>
<rect opacity="0.5" x="604" y="376.298" width="106" height="34" rx="17" fill="#8FC718"/>
</svg>
