<svg width="1024" height="1024" viewBox="0 0 1024 1024" fill="none" xmlns="http://www.w3.org/2000/svg">
<path d="M64 288.25C64 164.4 164.4 64 288.25 64H736.75C860.6 64 961 164.4 961 288.25V736.75C961 860.6 860.6 961 736.75 961H288.25C164.4 961 64 860.6 64 736.75V288.25Z" fill="#30B565"/>
<path opacity="0.9" d="M493.275 748C528.807 748 558.539 722.681 565.366 689.125H421.154C428.011 722.681 457.743 748 493.275 748Z" fill="white"/>
<path opacity="0.9" d="M630.896 512.5C630.803 512.5 630.745 512.5 630.659 512.5C554.917 512.5 493.275 450.887 493.275 375.116C493.275 354.302 498.075 334.61 506.405 316.887C502.079 316.478 497.716 316.212 493.275 316.212C417.417 316.212 355.89 377.703 355.89 453.596V508.317C355.89 547.148 338.871 583.801 309.024 609.056C299.078 617.565 294.658 631.105 298.222 644.293C302.434 659.688 317.591 669.491 333.546 669.491H652.946C669.662 669.491 685.445 658.66 688.83 642.288C691.446 629.632 686.947 616.947 677.108 608.704C648.555 584.743 632.075 549.592 630.896 512.5Z" fill="white"/>
<path opacity="0.5" d="M728.775 375.115C728.775 429.305 684.849 473.231 630.659 473.231C576.47 473.231 532.544 429.305 532.544 375.115C532.544 320.926 576.47 277 630.659 277C684.849 277 728.775 320.926 728.775 375.115Z" fill="white"/>
</svg>
