<svg width="1024" height="1024" viewBox="0 0 1024 1024" fill="none" xmlns="http://www.w3.org/2000/svg">
<path d="M64 288.25C64 164.4 164.4 64 288.25 64H736.75C860.6 64 961 164.4 961 288.25V736.75C961 860.6 860.6 961 736.75 961H288.25C164.4 961 64 860.6 64 736.75V288.25Z" fill="#3280D3"/>
<rect opacity="0.5" x="337" y="284" width="451" height="353" rx="40" fill="white"/>
<rect x="222" y="374" width="481" height="383" rx="55" fill="white" stroke="#3280D3" stroke-width="30"/>
<path d="M284 517C284 505.954 292.954 497 304 497H621C632.046 497 641 505.954 641 517V657C641 679.091 623.091 697 601 697H324C301.909 697 284 679.091 284 657V517Z" fill="#3280D3"/>
</svg>
